<svg xmlns="http://www.w3.org/2000/svg" viewBox="0 0 1000 1000" xml:space="preserve"><path d="M500 970.8C240 970.8 29.2 760 29.2 500S240 29.2 500 29.2 970.8 240 970.8 500 760 970.8 500 970.8" style="fill:#fff"/><path class="st1" d="m295.8 449.6 74.3 84.6L262 737l-132.7.4zm297.5 13.6 122.7-2.1 152.1 286.3H745.9z"/><path class="st1" d="m433.5 209 145.8 1.9L696.7 423 583 426.8l-66.2-120.7h-23.4l-50.8 95.5L583 580l-.9 167.4-273-6.8 46.2-92.5 124.9 1.3 1-46.3-165-194.9zm11.8-31.9 116.9 1.7-59.3-107.2z"/></svg>